<?xml version="1.0" encoding="iso-8859-1"?>
<!-- Generator: Adobe Illustrator 18.0.0, SVG Export Plug-In . SVG Version: 6.00 Build 0)  -->
<!DOCTYPE svg PUBLIC "-//W3C//DTD SVG 1.1//EN" "http://www.w3.org/Graphics/SVG/1.1/DTD/svg11.dtd">
<svg xmlns="http://www.w3.org/2000/svg" xmlns:xlink="http://www.w3.org/1999/xlink" version="1.1" id="Capa_1" x="0px" y="0px" viewBox="0 0 455.731 455.731" style="enable-background:new 0 0 455.731 455.731;" xml:space="preserve" width="512px" height="512px">
<g>
	<path d="M173.196,190.236h66.74c9.019,0,16.33-7.311,16.33-16.33c0-9.019-7.311-16.33-16.33-16.33h-66.74   c-9.019,0-16.33,7.311-16.33,16.33C156.866,182.924,164.177,190.236,173.196,190.236z" fill="#FFFFFF"/>
	<path d="M283.956,265.496h-110.76c-9.019,0-16.33,7.311-16.33,16.33s7.311,16.33,16.33,16.33h110.76   c9.019,0,16.33-7.311,16.33-16.33S292.974,265.496,283.956,265.496z" fill="#FFFFFF"/>
	<path d="M0,0v455.731h455.731V0H0z M369.866,286.829c0,46.252-37.495,83.747-83.747,83.747H169.612   c-46.252,0-83.747-37.495-83.747-83.747V168.902c0-46.252,37.495-83.747,83.747-83.747h62.546   c46.252,0,83.747,37.495,83.747,83.747v1.389c0,11.015,8.929,19.944,19.944,19.944h14.073c11.015,0,19.944,8.929,19.944,19.944   V286.829z" fill="#FFFFFF"/>
</g>
<g>
</g>
<g>
</g>
<g>
</g>
<g>
</g>
<g>
</g>
<g>
</g>
<g>
</g>
<g>
</g>
<g>
</g>
<g>
</g>
<g>
</g>
<g>
</g>
<g>
</g>
<g>
</g>
<g>
</g>
</svg>
