<?xml version="1.0" encoding="utf-8"?>
<!-- Generator: Adobe Illustrator 18.0.0, SVG Export Plug-In . SVG Version: 6.00 Build 0)  -->
<!DOCTYPE svg PUBLIC "-//W3C//DTD SVG 1.1//EN" "http://www.w3.org/Graphics/SVG/1.1/DTD/svg11.dtd">
<svg version="1.1" id="Layer_1" xmlns="http://www.w3.org/2000/svg" xmlns:xlink="http://www.w3.org/1999/xlink" x="0px" y="0px"
	 viewBox="0 0 64 64" enable-background="new 0 0 64 64" xml:space="preserve">
<g>
	<path d="M34,37.2V0h-4v37.2c-4.6,0.9-8,5-8,9.8s3.4,8.9,8,9.8V64h4v-7.2c4.6-0.9,8-5,8-9.8S38.6,38.1,34,37.2z M32,53
		c-3.3,0-6-2.7-6-6s2.7-6,6-6s6,2.7,6,6S35.3,53,32,53z"/>
	<path d="M62,25c0-4.8-3.4-8.9-8-9.8V0h-4v15.2c-4.6,0.9-8,5-8,9.8s3.4,8.9,8,9.8V64h4V34.8C58.6,33.9,62,29.8,62,25z M52,31
		c-3.3,0-6-2.7-6-6s2.7-6,6-6s6,2.7,6,6S55.3,31,52,31z"/>
	<path d="M22,18c0-4.8-3.4-8.9-8-9.8V0h-4v8.2c-4.6,0.9-8,5-8,9.8s3.4,8.9,8,9.8V64h4V27.8C18.6,26.9,22,22.8,22,18z M12,24
		c-3.3,0-6-2.7-6-6s2.7-6,6-6s6,2.7,6,6S15.3,24,12,24z"/>
</g>
</svg>
