<?xml version="1.0" encoding="utf-8"?>
<!-- Generator: Adobe Illustrator 22.0.1, SVG Export Plug-In . SVG Version: 6.00 Build 0)  -->
<svg version="1.1" id="Layer_1" xmlns="http://www.w3.org/2000/svg" xmlns:xlink="http://www.w3.org/1999/xlink" x="0px" y="0px"
	 viewBox="0 0 25 29.1" style="enable-background:new 0 0 25 29.1;" xml:space="preserve">
<style type="text/css">
	.st0{fill:none;}
	.st1{fill:#EC1C2F;}
</style>
<g transform="translate(-207 -596)">
	<rect x="207" y="596" class="st0" width="16" height="16"/>
	<path class="st1" d="M219.9,613.3c2.8,0,5.1-2.3,5.1-5.1c0,0,0,0,0,0c0-2.8-2.2-5.2-5.1-5.3c-2.8,0-5.1,2.3-5.1,5.1c0,0,0,0,0,0
		C214.9,610.9,217.1,613.2,219.9,613.3z M211.4,599.5c4.7-4.7,12.4-4.6,17.1,0.1c4.6,4.7,4.6,12.3,0,17l-8.5,8.5l-8.5-8.5
		C206.9,611.8,206.9,604.3,211.4,599.5z"/>
</g>
</svg>
