<?xml version="1.0" encoding="utf-8"?>
<!-- Generator: Adobe Illustrator 22.0.1, SVG Export Plug-In . SVG Version: 6.00 Build 0)  -->
<svg version="1.1" id="Layer_1" xmlns="http://www.w3.org/2000/svg" xmlns:xlink="http://www.w3.org/1999/xlink" x="0px" y="0px"
	 viewBox="0 0 24 24" style="enable-background:new 0 0 24 24;" xml:space="preserve">
<style type="text/css">
	.st0{fill:none;}
	.st1{fill:#EC1C2F;}
</style>
<g transform="translate(-198 -456)">
	<rect x="198" y="459" class="st0" width="16" height="16"/>
	<path class="st1" d="M211.9,473.1l2.6-2.4c0.2-0.2,0.4-0.2,0.6-0.2l0.4,0.2l6,2.8c0.4,0.2,0.4,0.4,0.4,0.9c0,1.5-0.6,2.9-1.7,3.9
		c-1.2,1.2-2.8,1.8-4.5,1.7c-2.1,0-4.1-0.5-6-1.5c-2.2-1.2-4.2-2.6-6-4.3c-1.2-1.5-2.3-3.1-3.2-4.7c-0.9-1.5-1.6-3.1-2.1-4.7
		c-0.4-1.3-0.5-2.7-0.4-4.1c0.1-1.2,0.7-2.3,1.5-3.2c1.1-1,2.6-1.5,4.1-1.5c0.3,0,0.7,0.2,0.9,0.4l3.2,6c0,0.2,0.1,0.3,0.2,0.4
		c0,0.2,0,0.5-0.2,0.6l-2.8,2.6c-0.2,0.3-0.2,0.7,0,1.1c0.7,1.2,1.6,2.4,2.6,3.4c1,1,2.2,2,3.4,2.8
		C211.3,473.6,211.7,473.6,211.9,473.1z"/>
</g>
</svg>
