<svg xmlns="http://www.w3.org/2000/svg" viewBox="0 0 50 51.707"><g transform="translate(-9 -9.6)"><path d="M31.988,46.563h4.634V51.2H31.988ZM27.659,23.515a9.6,9.6,0,0,0-1.829,3.171,12,12,0,0,0-.61,3.963h3.537a12.021,12.021,0,0,1,.3-2.683,6.1,6.1,0,0,1,1.037-2.2,5.4,5.4,0,0,1,1.829-1.463,5.658,5.658,0,0,1,2.561-.549,4.994,4.994,0,0,1,3.6,1.28,5.555,5.555,0,0,1,1.463,3.6,5.823,5.823,0,0,1-.366,2.622,8.443,8.443,0,0,1-1.22,2.012,21.765,21.765,0,0,1-1.646,1.707,23.374,23.374,0,0,0-1.707,1.768,11.269,11.269,0,0,0-1.4,2.2,8.307,8.307,0,0,0-.671,2.988V43.88h3.537V42.234a6.544,6.544,0,0,1,.3-1.951,5.723,5.723,0,0,1,.854-1.585,12.865,12.865,0,0,1,1.159-1.4c.427-.427.854-.854,1.341-1.28.427-.427.854-.915,1.341-1.4a14.318,14.318,0,0,0,1.159-1.524,8.286,8.286,0,0,0,.793-1.829,8.887,8.887,0,0,0,.3-2.317,9.141,9.141,0,0,0-.671-3.537,7.269,7.269,0,0,0-1.829-2.622,7.59,7.59,0,0,0-2.8-1.646,11.954,11.954,0,0,0-3.476-.488,9.9,9.9,0,0,0-3.9.732A8.33,8.33,0,0,0,27.659,23.515ZM42.72,10.893l-1.28,3.415a21.34,21.34,0,1,1-28.78,20A21.542,21.542,0,0,1,23.39,15.771l-2.256,5.915,3.415,1.341,4.329-11.159L17.72,7.6l-1.341,3.415L21.2,12.9A24.95,24.95,0,1,0,42.72,10.893Z" transform="translate(0 2)"/></g></svg>