<svg xmlns="http://www.w3.org/2000/svg" viewBox="0 0 60.845 48.257"><defs><style>.a{fill:none;stroke:#000;stroke-miterlimit:10;stroke-width:3px;}</style></defs><g transform="translate(53.2 -401.343)"><path class="a" d="M768.9,326.2a9.953,9.953,0,0,1,0,19.907" transform="translate(-772.709 86.177)"/><path class="a" d="M412.225,214.1v36.469L396.7,240.527H390V224.208h6.6Z" transform="translate(-421.786 190)"/><path class="a" d="M140.214,351v16.318H128.459a8.193,8.193,0,0,1-8.159-8.174A8.181,8.181,0,0,1,128.459,351Z" transform="translate(-172 63.208)"/><path class="a" d="M233.469,572l-2.835,16.717a.858.858,0,0,1-.864.856h-5.206a.859.859,0,0,1-.864-.856L226.535,572Z" transform="translate(-267.765 -141.473)"/><path d="M773.024,414.962a3.658,3.658,0,0,1-3.655,3.655A3.419,3.419,0,0,1,769,418.6v-7.273a3.423,3.423,0,0,1,.369-.022A3.67,3.67,0,0,1,773.024,414.962Z" transform="translate(-772.801 7.361)"/></g></svg>