<svg xmlns="http://www.w3.org/2000/svg" viewBox="0 0 35.755 50"><g transform="translate(-19.387 -7.2)"><path d="M41.591,24.665a11.88,11.88,0,0,1,.818,4.5A9.053,9.053,0,0,1,42,32.083a9.481,9.481,0,0,1-1.051,2.336,11.941,11.941,0,0,1-1.46,1.928c-.526.584-1.11,1.168-1.694,1.752-.584.526-1.11,1.051-1.694,1.636a10.572,10.572,0,0,0-1.46,1.752,7.24,7.24,0,0,0-1.051,1.986,6.358,6.358,0,0,0-.409,2.453v2.044h-4.5V45.459a10.4,10.4,0,0,1,.818-3.8,11.375,11.375,0,0,1,1.752-2.8,19.518,19.518,0,0,1,2.161-2.22,24.372,24.372,0,0,0,2.1-2.161,10.128,10.128,0,0,0,1.577-2.512,7.434,7.434,0,0,0,.467-3.329,6.787,6.787,0,0,0-1.869-4.556,6.091,6.091,0,0,0-4.5-1.636,7.113,7.113,0,0,0-3.271.7,5.96,5.96,0,0,0-2.278,1.869A7.1,7.1,0,0,0,24.3,27.761a12.969,12.969,0,0,0-.409,3.446h-4.5a14.156,14.156,0,0,1,.759-5.023,11.439,11.439,0,0,1,2.336-4.03,10.228,10.228,0,0,1,3.738-2.687,12.337,12.337,0,0,1,4.965-.935,13.709,13.709,0,0,1,4.5.7,9.674,9.674,0,0,1,5.9,5.432ZM27.981,57.2h5.841V51.359H27.981ZM55.142,13.45h-5.9V7.2h-3.8v6.308H39.605v3.8h5.841v6.308h3.8V17.247h5.9Z"/></g></svg>