<?xml version="1.0" encoding="utf-8"?>
<!-- Generator: Adobe Illustrator 22.0.1, SVG Export Plug-In . SVG Version: 6.00 Build 0)  -->
<svg version="1.1" id="Layer_1" xmlns="http://www.w3.org/2000/svg" xmlns:xlink="http://www.w3.org/1999/xlink" x="0px" y="0px"
	 viewBox="0 0 35.8 50" style="enable-background:new 0 0 35.8 50;" xml:space="preserve">
<g transform="translate(-19.387 -7.2)">
	<path d="M43.9,27.7c0.4,0.9,0.5,1.9,0.5,2.8c0,0.6-0.1,1.2-0.3,1.8c-0.2,0.5-0.4,1-0.7,1.5c-0.3,0.4-0.6,0.8-0.9,1.2
		c-0.3,0.4-0.7,0.7-1.1,1.1c-0.4,0.3-0.7,0.7-1.1,1c-0.3,0.3-0.7,0.7-0.9,1.1c-0.3,0.4-0.5,0.8-0.7,1.3c-0.2,0.5-0.3,1-0.3,1.5v1.3
		h-2.8v-1.6c0-0.8,0.2-1.6,0.5-2.4c0.3-0.6,0.7-1.2,1.1-1.8c0.4-0.5,0.9-1,1.4-1.4c0.5-0.4,0.9-0.9,1.3-1.4c0.4-0.5,0.7-1,1-1.6
		c0.3-0.7,0.4-1.4,0.3-2.1c0-1.1-0.4-2.1-1.2-2.9c-0.8-0.7-1.8-1.1-2.8-1c-0.7,0-1.4,0.1-2.1,0.4c-0.6,0.3-1.1,0.7-1.4,1.2
		c-0.4,0.5-0.7,1.1-0.8,1.7c-0.2,0.7-0.3,1.4-0.3,2.2h-2.8c0-1.1,0.1-2.1,0.5-3.2c0.3-0.9,0.8-1.8,1.5-2.5c0.6-0.7,1.5-1.3,2.4-1.7
		c1-0.4,2.1-0.6,3.1-0.6c1,0,1.9,0.1,2.8,0.4C41.8,24.8,43.2,26.1,43.9,27.7L43.9,27.7z M35.3,48.2H39v-3.7h-3.7V48.2z M52.4,20.6
		h-3.7v-3.9h-2.4v4h-3.7v2.4h3.7v4h2.4v-4h3.7L52.4,20.6z"/>
</g>
</svg>
