<?xml version="1.0" encoding="utf-8"?>
<!-- Generator: Adobe Illustrator 22.0.1, SVG Export Plug-In . SVG Version: 6.00 Build 0)  -->
<svg version="1.1" id="Capa_1" xmlns="http://www.w3.org/2000/svg" xmlns:xlink="http://www.w3.org/1999/xlink" x="0px" y="0px"
	 viewBox="0 0 58 58" style="enable-background:new 0 0 58 58;" xml:space="preserve">
<style type="text/css">
	.st0{fill:#FF7D00;}
	.st1{fill:#FF5500;}
	.st2{fill:#FFFFFF;}
</style>
<g>
	<path class="st0" d="M48,19.9v21.1c0,2.7-2.2,4.9-4.9,4.9H22L12,57V46H4.9C2.2,46,0,43.8,0,41.1V19.9C0,17.2,2.2,15,4.9,15h38.1
		C45.8,15,48,17.2,48,19.9z"/>
	<path class="st1" d="M53.1,1H14.9C12.2,1,10,3.2,10,5.9V15h33.1c2.7,0,4.9,2.2,4.9,4.9V32h5.1c2.7,0,4.9-2.2,4.9-4.9V5.9
		C58,3.2,55.8,1,53.1,1z"/>
	<path class="st2" d="M25,26H11c-0.6,0-1-0.4-1-1s0.4-1,1-1h14c0.6,0,1,0.4,1,1S25.6,26,25,26z"/>
	<path class="st2" d="M38,32H11c-0.6,0-1-0.4-1-1s0.4-1,1-1h27c0.6,0,1,0.4,1,1S38.6,32,38,32z"/>
	<path class="st2" d="M38,38H11c-0.6,0-1-0.4-1-1s0.4-1,1-1h27c0.6,0,1,0.4,1,1S38.6,38,38,38z"/>
</g>
</svg>
