<svg xmlns="http://www.w3.org/2000/svg" viewBox="0 0 113.39 113.39"><defs><style>.cls-1{fill:red;}</style></defs><title>Asset 1</title><g id="Layer_2" data-name="Layer 2"><g id="Layer_1-2" data-name="Layer 1"><path class="cls-1" d="M96.78,0H16.61A16.63,16.63,0,0,0,0,16.61V96.78a16.63,16.63,0,0,0,16.61,16.61H96.78a16.64,16.64,0,0,0,16.61-16.61V16.61A16.63,16.63,0,0,0,96.78,0ZM56.91,86.37a29.9,29.9,0,1,1,29.9-29.9A29.93,29.93,0,0,1,56.91,86.37ZM90.13,33.22a10,10,0,1,1,10-10A10,10,0,0,1,90.13,33.22Z"/><path class="cls-1" d="M90.13,19.93a3.32,3.32,0,1,0,3.32,3.32A3.32,3.32,0,0,0,90.13,19.93Z"/><path class="cls-1" d="M56.91,33.22A23.25,23.25,0,1,0,80.17,56.47,23.28,23.28,0,0,0,56.91,33.22Z"/></g></g></svg>