<svg xmlns="http://www.w3.org/2000/svg" viewBox="0 0 113.39 92.8"><defs><style>.cls-1{fill:red;}</style></defs><title>tweeter_1</title><g id="Layer_2" data-name="Layer 2"><g id="Layer_1-2" data-name="Layer 1"><path class="cls-1" d="M42.3,92.8a98.11,98.11,0,0,1-15-1.19c-8.94-1.41-18-6.08-20.55-7.48L0,80.45l7.27-2.39c8-2.61,12.79-4.24,18.78-6.78A24.93,24.93,0,0,1,13.21,56.41l-1.69-5.14,1.38.21a25.73,25.73,0,0,1-3.16-3.89,23.89,23.89,0,0,1-4-14.22L6,28.88l2.69,1a25.16,25.16,0,0,1-2.43-6.81A25.94,25.94,0,0,1,9,5.64l2.34-4.29,3.13,3.76C24.38,17,36.9,24,51.77,26.1a22.34,22.34,0,0,1,1.35-11.85,22.29,22.29,0,0,1,9-10.34A27.1,27.1,0,0,1,77.86.05,25.11,25.11,0,0,1,93.3,6.42,51.31,51.31,0,0,0,99,4.53c1.24-.47,2.64-1,4.4-1.6L109.83.7,105.6,12.76l.87,0,6.92-.32L109.3,18a6.23,6.23,0,0,0-.38.54c-.33.49-.74,1.11-6.35,8.6a10.56,10.56,0,0,0-2,6.89c.5,9.73-.69,18.54-3.55,26.18A46.36,46.36,0,0,1,84.6,78.61C77.73,84.8,69,89,58.56,91.2A79.5,79.5,0,0,1,42.3,92.8Z"/></g></g></svg>